<svg width="56" height="11" viewBox="0 0 56 11" fill="none" xmlns="http://www.w3.org/2000/svg">
<path d="M49.5998 1.79471L45.3628 0.0908051V2.34081H50.8925L49.5998 1.79471Z" fill="white"/>
<path d="M49.8975 10.6407C48.7431 10.6407 47.719 10.4809 46.8252 10.1614C45.9439 9.84186 45.2488 9.39866 44.7398 8.83178C44.2433 8.25459 43.995 7.6001 43.995 6.86831V6.18805C43.995 5.45626 44.2433 4.80692 44.7398 4.24003C45.2488 3.67315 45.9439 3.22995 46.8252 2.91044C47.719 2.58062 48.7431 2.4157 49.8975 2.4157C51.0519 2.4157 52.0698 2.58062 52.9511 2.91044C53.8448 3.22995 54.54 3.67315 55.0365 4.24003C55.5454 4.80692 55.7999 5.45626 55.7999 6.18805V6.86831C55.7999 7.6001 55.5454 8.25459 55.0365 8.83178C54.54 9.39866 53.8448 9.84186 52.9511 10.1614C52.0698 10.4809 51.0519 10.6407 49.8975 10.6407ZM49.8975 7.84231C50.2574 7.84231 50.5554 7.74955 50.7912 7.56403C51.0271 7.36819 51.145 7.13629 51.145 6.86831V6.18805C51.145 5.92007 51.0271 5.69332 50.7912 5.50779C50.5554 5.31196 50.2574 5.21404 49.8975 5.21404C49.5499 5.21404 49.252 5.31196 49.0037 5.50779C48.7679 5.69332 48.65 5.92007 48.65 6.18805V6.86831C48.65 7.13629 48.7679 7.36819 49.0037 7.56403C49.252 7.74955 49.5499 7.84231 49.8975 7.84231Z" fill="#4A8FE8"/>
<path d="M18.7737 10.64L20.4975 7.87C19.1512 8.04464 18.3963 8.04951 17.05 7.87L18.7737 10.64Z" fill="white"/>
<path d="M18.7824 7.92627C17.628 7.92627 16.6039 7.77484 15.7102 7.47198C14.8289 7.16912 14.1337 6.74902 13.6248 6.21168C13.1283 5.66457 12.88 5.04419 12.88 4.35054V3.70573C12.88 3.01208 13.1283 2.39659 13.6248 1.85925C14.1337 1.32191 14.8289 0.901813 15.7102 0.59895C16.6039 0.286317 17.628 0.130001 18.7824 0.130001C19.9369 0.130001 20.9547 0.286317 21.8361 0.59895C22.7298 0.901813 23.4249 1.32191 23.9215 1.85925C24.4304 2.39659 24.6849 3.01208 24.6849 3.70573V4.35054C24.6849 5.04419 24.4304 5.66457 23.9215 6.21168C23.4249 6.74902 22.7298 7.16912 21.8361 7.47198C20.9547 7.77484 19.9369 7.92627 18.7824 7.92627ZM18.7824 5.27378C19.1424 5.27378 19.4403 5.18585 19.6762 5.01C19.912 4.82437 20.0299 4.60455 20.0299 4.35054V3.70573C20.0299 3.45172 19.912 3.23679 19.6762 3.06093C19.4403 2.8753 19.1424 2.78249 18.7824 2.78249C18.4349 2.78249 18.137 2.8753 17.8887 3.06093C17.6528 3.23679 17.5349 3.45172 17.5349 3.70573V4.35054C17.5349 4.60455 17.6528 4.82437 17.8887 5.01C18.137 5.18585 18.4349 5.27378 18.7824 5.27378Z" fill="#4A8FE8"/>
<path d="M31.395 10.6311V0.131086H39.33C40.43 0.131086 41.255 0.371086 41.805 0.851086C42.365 1.33109 42.645 1.96109 42.645 2.74109C42.645 3.13109 42.56 3.50609 42.39 3.86609C42.22 4.21609 41.935 4.51109 41.535 4.75109C41.145 4.99109 40.61 5.13609 39.93 5.18609V5.48609C40.99 5.54609 41.76 5.80109 42.24 6.25109C42.73 6.69109 42.975 7.25109 42.975 7.93109C42.975 8.72109 42.69 9.37109 42.12 9.88109C41.56 10.3811 40.79 10.6311 39.81 10.6311H31.395ZM35.535 4.22609H37.71C37.9 4.22609 38.05 4.17109 38.16 4.06109C38.27 3.95109 38.325 3.80609 38.325 3.62609C38.325 3.44609 38.27 3.30109 38.16 3.19109C38.05 3.08109 37.9 3.02609 37.71 3.02609H35.535V4.22609ZM35.535 7.73609H37.95C38.14 7.73609 38.29 7.68109 38.4 7.57109C38.51 7.46109 38.565 7.31609 38.565 7.13609C38.565 6.95609 38.51 6.81109 38.4 6.70109C38.29 6.59109 38.14 6.53609 37.95 6.53609H35.535V7.73609Z" fill="#4A8FE8"/>
<rect x="25.8951" y="0.141121" width="4.2" height="2.25" fill="white"/>
<rect x="25.8951" y="2.47109" width="4.20293" height="8.16" fill="#4A8FE8"/>
<path d="M0.277368 10.6406V0.140586H4.47737V3.57559H7.47737V0.140586H11.6774V10.6406H7.47737V6.90559H4.47737V10.6406H0.277368Z" fill="#4A8FE8"/>
</svg>
