<svg width="12" height="11" viewBox="0 0 12 11" fill="none" xmlns="http://www.w3.org/2000/svg">
<path d="M5.97373 10.54L7.69746 7.77C6.35115 7.94464 5.59632 7.94951 4.25 7.77L5.97373 10.54Z" fill="white"/>
<path d="M5.98243 7.82627C4.82801 7.82627 3.80393 7.67484 2.91019 7.37198C2.02886 7.06912 1.33372 6.64902 0.824788 6.11168C0.328264 5.56457 0.0800018 4.94419 0.0800018 4.25054V3.60574C0.0800018 2.91208 0.328264 2.29659 0.824788 1.75925C1.33372 1.22191 2.02886 0.801814 2.91019 0.498951C3.80393 0.186319 4.82801 0.0300026 5.98243 0.0300026C7.13685 0.0300026 8.15472 0.186319 9.03605 0.498951C9.92979 0.801814 10.6249 1.22191 11.1215 1.75925C11.6304 2.29659 11.8849 2.91208 11.8849 3.60574V4.25054C11.8849 4.94419 11.6304 5.56457 11.1215 6.11168C10.6249 6.64902 9.92979 7.06912 9.03605 7.37198C8.15472 7.67484 7.13685 7.82627 5.98243 7.82627ZM5.98243 5.17378C6.34241 5.17378 6.64032 5.08586 6.87617 4.91C7.11202 4.72437 7.22995 4.50455 7.22995 4.25054V3.60574C7.22995 3.35172 7.11202 3.13679 6.87617 2.96093C6.64032 2.77531 6.34241 2.68249 5.98243 2.68249C5.63486 2.68249 5.33695 2.77531 5.08869 2.96093C4.85284 3.13679 4.73491 3.35172 4.73491 3.60574V4.25054C4.73491 4.50455 4.85284 4.72437 5.08869 4.91C5.33695 5.08586 5.63486 5.17378 5.98243 5.17378Z" fill="#F59207"/>
</svg>
